<svg xmlns="http://www.w3.org/2000/svg" width="640" height="480"><title>velvet</title><g><path id="rect4" fill="#faa" fill-rule="nonzero" stroke="#000" stroke-width="3" d="m38.987701,10.4258c-0.8666,11.126101 -11.8922,20.0546 -25.644801,20.0546c-0.525701,0 -0.9572,-0.2544 -1.475201,-0.2798l0,224.426399c0.518001,-0.026001 0.9495,-0.279999 1.475201,-0.279999c14.316899,0 25.985198,9.498001 25.985198,21.267014c0,0.596985 -0.395199,1.093994 -0.453899,1.678986l563.731819,0c-0.059021,-0.584991 -0.454041,-1.082001 -0.454041,-1.678986c0,-11.604004 11.378052,-20.911011 25.41803,-21.174011l0,-224.052803c-13.479004,-0.2526 -24.223999,-8.997799 -25.078003,-19.961399l-563.504303,0l0,0l0,0l0,0z"/><rect id="rect188" width="544.668" height="210.401" x="48.406" y="37.904" fill="#fff" fill-rule="nonzero" stroke="#000" stroke-width="3" rx="5.546" ry="5.546"/><title>Layer 1</title><line id="svg_1" x1="84" x2="83" y1="39" y2="248" fill="none" stroke="#000" stroke-width="3"/><line id="svg_2" x1="561" x2="561" y1="37" y2="247" fill="none" stroke="#000" stroke-width="3"/></g></svg>